<svg 
 xmlns="http://www.w3.org/2000/svg"
 xmlns:xlink="http://www.w3.org/1999/xlink"
 width="14px" height="16px" viewBox="0 0 14 16">
<path fill-rule="evenodd"  fill="rgb(111, 113, 117)"
 d="M13.992,15.332 L12.963,4.489 C12.934,4.193 12.672,3.966 12.358,3.966 L10.235,3.966 L10.235,3.061 C10.235,1.373 8.784,-0.000 7.000,-0.000 C5.216,-0.000 3.764,1.373 3.764,3.061 L3.764,3.966 L1.640,3.966 C1.326,3.966 1.064,4.193 1.036,4.489 L0.002,15.375 C-0.013,15.535 0.044,15.694 0.159,15.813 C0.274,15.932 0.437,16.000 0.607,16.000 L13.391,16.000 C13.392,16.000 13.392,16.000 13.393,16.000 C13.728,16.000 14.000,15.743 14.000,15.426 C14.000,15.394 13.997,15.363 13.992,15.332 ZM4.979,3.061 C4.979,2.006 5.885,1.149 7.000,1.149 C8.114,1.149 9.021,2.006 9.021,3.061 L9.021,3.966 L4.979,3.966 L4.979,3.061 ZM1.271,14.851 L2.195,5.115 L3.764,5.115 L3.764,6.142 C3.764,6.459 4.036,6.716 4.371,6.716 C4.707,6.716 4.979,6.459 4.979,6.142 L4.979,5.115 L9.021,5.115 L9.021,6.142 C9.021,6.459 9.293,6.716 9.628,6.716 C9.964,6.716 10.235,6.459 10.235,6.142 L10.235,5.115 L11.803,5.115 L12.727,14.851 L1.271,14.851 L1.271,14.851 Z"/>
</svg>