<svg 
 xmlns="http://www.w3.org/2000/svg"
 xmlns:xlink="http://www.w3.org/1999/xlink"
 width="16px" height="16px" viewBox="0 0 16 16" viewbox="0 0 16 16">
<path fill-rule="evenodd"  fill="rgb(111, 113, 117)"
 d="M10.800,9.867 C12.333,8.933 13.333,7.267 13.333,5.333 C13.333,2.400 10.933,-0.000 8.000,-0.000 C5.067,-0.000 2.667,2.400 2.667,5.333 C2.667,7.267 3.667,8.933 5.200,9.867 C2.533,10.867 0.533,13.200 -0.000,16.000 L1.333,16.000 C2.000,12.933 4.733,10.667 8.000,10.667 C11.267,10.667 14.000,12.933 14.667,16.000 L16.000,16.000 C15.467,13.133 13.467,10.800 10.800,9.867 ZM4.000,5.333 C4.000,3.133 5.800,1.333 8.000,1.333 C10.200,1.333 12.000,3.133 12.000,5.333 C12.000,7.533 10.200,9.333 8.000,9.333 C5.800,9.333 4.000,7.533 4.000,5.333 Z"/>
</svg>