<svg xmlns="http://www.w3.org/2000/svg" width="40" height="40" viewBox="0 0 40 40">
  <metadata><?xpacket begin="﻿" id="W5M0MpCehiHzreSzNTczkc9d"?>
<x:xmpmeta xmlns:x="adobe:ns:meta/" x:xmptk="Adobe XMP Core 5.6-c138 79.159824, 2016/09/14-01:09:01        ">
   <rdf:RDF xmlns:rdf="http://www.w3.org/1999/02/22-rdf-syntax-ns#">
      <rdf:Description rdf:about=""/>
   </rdf:RDF>
</x:xmpmeta>
                                                                                                    
                                                                                                    
                                                                                                    
                                                                                                    
                                                                                                    
                                                                                                    
                                                                                                    
                                                                                                    
                                                                                                    
                                                                                                    
                                                                                                    
                                                                                                    
                                                                                                    
                                                                                                    
                                                                                                    
                                                                                                    
                                                                                                    
                                                                                                    
                                                                                                    
                                                                                                    
                           
<?xpacket end="w"?></metadata>
<defs>
    <style>
      .cls-1 {
        fill: #eb287b;
      }

      .cls-2 {
        fill: #fff;
        fill-rule: evenodd;
      }
    </style>
  </defs>
  <circle id="Ellipse_5_copy_5" data-name="Ellipse 5 copy 5" class="cls-1" cx="20" cy="20" r="20"/>
  <path class="cls-2" d="M20.5,22a5,5,0,1,0-6,0A7.656,7.656,0,0,0,10,28h1.667a5.9,5.9,0,0,1,11.664,0H25a7.656,7.656,0,0,0-4.5-6h0Zm-3-.667A3.333,3.333,0,1,1,20.833,18,3.343,3.343,0,0,1,17.5,21.333h0Zm9.748,0.5a4.9,4.9,0,0,0,1.083-3,5.057,5.057,0,0,0-5.582-5,3.433,3.433,0,0,1,.583.916,2.964,2.964,0,0,1,.333.75,3.381,3.381,0,0,1,3,3.333A3.479,3.479,0,0,1,25.332,21.5a0.757,0.757,0,0,0-.333.667,0.811,0.811,0,0,0,.667.834,3.383,3.383,0,0,1,2.666,3.25H30a5.008,5.008,0,0,0-2.75-4.417h0Z"/>
</svg>
