<svg 
 xmlns="http://www.w3.org/2000/svg"
 xmlns:xlink="http://www.w3.org/1999/xlink"
 width="20px" height="20px">
<path fill-rule="evenodd"  fill="rgb(197, 3, 99)"
 d="M17.071,17.065 C15.182,18.953 12.671,19.993 10.000,19.993 C7.329,19.993 4.818,18.953 2.929,17.065 C1.040,15.177 0.000,12.666 0.000,9.996 C0.000,7.326 1.040,4.816 2.929,2.928 C4.818,1.040 7.329,0.000 10.000,0.000 C12.671,0.000 15.182,1.040 17.071,2.928 C18.960,4.816 20.000,7.326 20.000,9.996 C20.000,12.666 18.960,15.177 17.071,17.065 ZM10.000,1.171 C5.132,1.171 1.172,5.130 1.172,9.996 C1.172,14.863 5.132,18.822 10.000,18.822 C14.868,18.822 18.828,14.863 18.828,9.996 C18.828,5.130 14.868,1.171 10.000,1.171 ZM9.189,13.204 C9.075,13.318 8.925,13.375 8.775,13.375 C8.625,13.375 8.475,13.318 8.360,13.204 L5.222,10.067 C4.994,9.838 4.994,9.467 5.222,9.239 C5.451,9.010 5.822,9.010 6.051,9.239 L8.775,11.961 L13.949,6.789 C14.178,6.560 14.549,6.560 14.778,6.789 C15.006,7.018 15.006,7.389 14.778,7.618 L9.189,13.204 Z"/>
</svg>